# Blender 3.1.0
# www.blender.org
mtllib ship2.mtl
o Cube
v 1.199978 0.360496 -0.708909
v 1.000000 -0.718323 -1.000000
v 1.199978 0.360496 0.708909
v 1.000000 -0.718323 1.000000
v -0.640583 0.069658 -1.000000
v -1.000000 -0.718323 -1.000000
v -0.640583 0.069658 1.000000
v -1.000000 -0.718323 1.000000
v -1.000000 0.000000 -1.000000
v 1.201847 0.234584 0.706188
v -1.000000 0.000000 1.000000
v 1.201847 0.234584 -0.706188
v 1.000000 -0.718323 0.000000
v -0.640583 0.069658 0.000000
v 1.000000 0.608253 0.000000
v -1.000000 -0.718323 0.000000
v 1.536021 -0.718323 0.000000
v -2.537284 -0.613682 0.000000
v -2.537284 -0.545103 0.340620
v -2.537284 -0.237275 0.234876
v -2.537284 -0.214747 0.251116
v -2.537284 -0.237275 -0.234876
v -2.537284 -0.545103 -0.340620
v -2.537284 -0.316660 0.000000
v -2.537284 -0.214747 -0.251116
v -2.537284 -0.386318 0.000000
v 2.177038 0.117543 -0.316176
v 2.072042 -0.718323 -1.000000
v 2.177038 0.117543 0.316176
v 2.072042 -0.718323 1.000000
v 2.072042 0.608253 0.000000
v 1.946341 0.348894 0.673544
v 2.072042 -0.718323 0.000000
v 1.946341 0.348894 -0.673544
v 2.977882 0.000000 0.000000
v 1.536021 -0.718323 -1.000000
v 1.587971 0.343106 -0.655903
v 1.588653 0.249940 -0.651384
v 1.536021 0.608253 0.000000
v 1.587971 0.343106 0.655903
v 1.588653 0.249940 0.651384
v 1.536021 -0.718323 1.000000
v 1.000000 -0.500000 -1.000000
v 1.000000 -0.500000 1.000000
v -1.000000 -0.500000 -1.000000
v -1.000000 -0.500000 1.000000
v -2.537284 -0.391189 -0.287748
v -2.537284 -0.391189 0.287748
v -2.537284 -0.500000 0.000000
v 2.508745 -0.356379 -0.425517
v 2.508745 -0.356379 0.425517
v 2.977882 -0.500000 0.000000
v 1.536021 -0.500000 1.000000
v 1.536021 -0.500000 -1.000000
v 1.536021 -0.500000 2.023891
v 1.536021 0.000000 2.023891
v 1.602905 0.000000 2.023891
v 1.602905 -0.500000 2.023891
v 1.000000 -0.500000 2.023891
v 1.000000 0.000000 2.023891
v 1.536021 0.000000 2.023891
v 1.536021 -0.500000 2.023891
v 1.000000 0.000000 -2.023891
v 1.000000 -0.500000 -2.023891
v 1.536021 -0.500000 -2.023891
v 1.536021 0.000000 -2.023891
v 1.536021 0.000000 -2.023891
v 1.536021 -0.500000 -2.023891
v 1.602905 -0.500000 -2.023891
v 1.602905 0.000000 -2.023891
v 1.536021 -0.500000 2.815810
v 1.536021 0.000000 2.815810
v 2.072042 0.000000 2.815810
v 2.072042 -0.500000 2.815810
v 1.000000 -0.437553 2.112460
v 1.000000 -0.062447 2.112460
v 1.536021 0.000000 2.815810
v 1.536021 -0.500000 2.815810
v 1.000000 -0.062447 -2.112460
v 1.000000 -0.437553 -2.112460
v 1.536021 -0.500000 -2.815810
v 1.536021 0.000000 -2.815810
v 1.536021 0.000000 -2.815810
v 1.536021 -0.500000 -2.815810
v 2.072042 -0.500000 -2.815810
v 2.072042 0.000000 -2.815810
vn 0.2155 -0.9625 -0.1648
vn -0.1776 0.3376 -0.9244
vn 0.4344 -0.0726 0.8978
vn -0.0000 1.0000 -0.0000
vn 0.0132 -0.9304 -0.3663
vn -0.1776 0.3376 0.9244
vn 0.2155 -0.9625 0.1648
vn 0.1582 -0.9841 -0.0802
vn 0.1007 0.9936 -0.0508
vn -0.2389 -0.5865 0.7740
vn -0.0556 -0.2225 0.9733
vn -0.1463 0.6881 0.7107
vn 0.3941 -0.1292 -0.9099
vn -0.0556 -0.2225 -0.9733
vn 1.0000 -0.0000 -0.0000
vn 0.2512 -0.9358 0.2473
vn 0.2512 -0.9358 -0.2473
vn 0.1582 -0.9841 0.0802
vn 0.1007 0.9936 0.0508
vn 0.7781 0.6281 -0.0000
vn -0.5827 -0.5246 -0.6207
vn -0.5827 -0.5246 0.6207
vn -0.5264 -0.2698 0.8063
vn -0.5264 -0.2698 -0.8063
vn 0.0132 -0.9304 0.3663
vn -0.1463 0.6881 -0.7107
vn -0.1377 0.0311 -0.9900
vn -0.0375 -0.9377 0.3455
vn -0.1377 0.0311 0.9900
vn -0.0000 -0.0000 1.0000
vn -0.0375 -0.9377 -0.3455
vn -0.0000 -0.0000 -1.0000
vn -0.2389 -0.5865 -0.7740
vn -0.4699 0.8494 -0.2402
vn -0.4699 0.8494 0.2402
vn 0.4344 -0.0726 -0.8978
vn 0.3941 -0.1292 0.9099
vn 0.9992 -0.0370 0.0181
vn -0.2777 -0.9456 -0.1693
vn -0.8498 -0.3351 -0.4069
vn -0.1322 0.9912 0.0086
vn 0.9870 -0.1446 0.0706
vn 0.0059 -0.9842 -0.1767
vn -0.9992 0.0370 -0.0181
vn 0.9870 -0.1446 -0.0706
vn -0.9992 0.0370 0.0181
vn 0.0059 -0.9842 0.1767
vn 0.9992 -0.0370 -0.0181
vn -0.1322 0.9912 -0.0086
vn -0.8498 -0.3351 0.4069
vn -0.2777 -0.9456 0.1693
vn -0.0000 -1.0000 -0.0000
vn -0.8604 -0.0000 0.5097
vn 0.7954 -0.0000 -0.6061
vn 0.1040 -0.9921 -0.0704
vn -1.0000 -0.0000 -0.0000
vn 0.1040 0.9921 -0.0704
vn 0.7954 -0.0000 0.6061
vn 0.1040 0.9921 0.0704
vn 0.1040 -0.9921 0.0704
vn -0.8604 -0.0000 -0.5097
vt 0.625000 0.500000
vt 0.375000 0.500000
vt 0.625000 0.750000
vt 0.375000 0.750000
vt 0.875000 0.500000
vt 0.625000 0.250000
vt 0.125000 0.500000
vt 0.375000 0.250000
vt 0.625000 1.000000
vt 0.875000 0.750000
vt 0.125000 0.750000
vt 0.375000 1.000000
vt 0.500000 0.250000
vt 0.500000 0.750000
vt 0.500000 1.000000
vt 0.500000 0.500000
vt 0.375000 0.625000
vt 0.875000 0.625000
vt 0.625000 0.625000
vt 0.125000 0.625000
vt 0.375000 0.625000
vt 0.125000 0.625000
vt 0.375000 0.125000
vt 0.125000 0.750000
vt 0.375000 1.000000
vt 0.375000 0.000000
vt 0.500000 0.000000
vt 0.500000 1.000000
vt 0.625000 0.000000
vt 0.625000 1.000000
vt 0.875000 0.750000
vt 0.500000 0.250000
vt 0.125000 0.500000
vt 0.375000 0.250000
vt 0.625000 0.125000
vt 0.875000 0.625000
vt 0.875000 0.500000
vt 0.625000 0.250000
vt 0.500000 0.125000
vt 0.500000 0.500000
vt 0.375000 0.500000
vt 0.500000 0.750000
vt 0.375000 0.750000
vt 0.625000 0.625000
vt 0.625000 0.750000
vt 0.375000 0.625000
vt 0.625000 0.500000
vt 0.500000 0.625000
vt 0.375000 0.500000
vt 0.625000 0.500000
vt 0.500000 0.500000
vt 0.625000 0.625000
vt 0.625000 0.750000
vt 0.500000 0.750000
vt 0.375000 0.750000
vt 0.437500 0.500000
vt 0.437500 0.750000
vt 0.437500 0.250000
vt 0.437500 1.000000
vt 0.437500 0.250000
vt 0.437500 0.000000
vt 0.437500 1.000000
vt 0.437500 0.125000
vt 0.437500 0.500000
vt 0.437500 0.750000
vt 0.437500 0.625000
vt 0.437500 0.750000
vt 0.437500 0.500000
vt 0.437500 0.750000
vt 0.500000 0.750000
vt 0.500000 0.750000
vt 0.437500 0.750000
vt 0.437500 0.750000
vt 0.500000 0.750000
vt 0.500000 0.750000
vt 0.437500 0.750000
vt 0.500000 0.500000
vt 0.437500 0.500000
vt 0.437500 0.500000
vt 0.500000 0.500000
vt 0.500000 0.500000
vt 0.437500 0.500000
vt 0.437500 0.500000
vt 0.500000 0.500000
vt 0.437500 0.750000
vt 0.500000 0.750000
vt 0.500000 0.750000
vt 0.437500 0.750000
vt 0.437500 0.750000
vt 0.500000 0.750000
vt 0.500000 0.750000
vt 0.437500 0.750000
vt 0.500000 0.500000
vt 0.437500 0.500000
vt 0.437500 0.500000
vt 0.500000 0.500000
vt 0.500000 0.500000
vt 0.437500 0.500000
vt 0.437500 0.500000
vt 0.500000 0.500000
s 0
usemtl ShipScreen
f 15/19/1 3/3/1 7/10/1 14/18/1
usemtl Material
f 10/14/2 11/15/2 7/9/2 3/3/2
f 45/58/3 9/13/3 22/32/3 47/60/3
f 16/20/4 8/11/4 4/4/4 13/17/4
f 40/53/5 39/52/5 31/44/5 32/45/5
f 9/13/6 12/16/6 1/1/6 5/6/6
usemtl ShipScreen
f 1/1/7 15/19/7 14/18/7 5/5/7
usemtl Material
f 6/7/4 16/20/4 13/17/4 2/2/4
f 36/49/4 17/21/4 33/46/4 28/41/4
usemtl front_tank
f 5/5/8 14/18/8 24/36/8 25/37/8
usemtl Material
f 8/11/9 16/20/9 18/22/9 19/24/9
f 54/68/10 36/49/10 28/41/10 50/64/10
f 45/58/11 43/56/11 12/16/11 9/13/11
usemtl ShipScreen
f 37/50/12 38/51/12 27/40/12 34/47/12
usemtl Material
f 46/59/13 8/12/13 19/25/13 48/62/13
f 44/57/14 46/59/14 11/15/14 10/14/14
usemtl front
f 26/39/15 22/32/15 25/38/15 24/35/15
f 20/27/15 26/39/15 24/35/15 21/29/15
f 48/61/15 49/63/15 26/39/15 20/27/15
f 49/63/15 47/60/15 22/32/15 26/39/15
usemtl Material
f 9/13/16 5/6/16 25/38/16 22/32/16
f 7/9/17 11/15/17 20/28/17 21/30/17
usemtl front_tank
f 14/18/18 7/10/18 21/31/18 24/36/18
usemtl Material
f 16/20/19 6/7/19 23/33/19 18/22/19
usemtl front
f 3/3/20 1/1/20 15/19/20
usemtl Material
f 35/48/21 29/42/21 32/45/21 31/44/21
f 27/40/22 35/48/22 31/44/22 34/47/22
f 50/64/23 52/66/23 35/48/23 27/40/23
f 52/66/24 51/65/24 29/42/24 35/48/24
f 39/52/25 37/50/25 34/47/25 31/44/25
usemtl ShipScreen
f 41/54/26 40/53/26 32/45/26 29/42/26
usemtl Material
f 17/21/4 42/55/4 30/43/4 33/46/4
f 13/17/4 4/4/4 42/55/4 17/21/4
usemtl ShipScreen
f 10/14/27 3/3/27 40/53/27 41/54/27
usemtl Material
f 15/19/28 1/1/28 37/50/28 39/52/28
usemtl ShipScreen
f 1/1/29 12/16/29 38/51/29 37/50/29
usemtl Material
f 43/56/30 2/2/30 36/49/30 54/68/30
f 2/2/4 13/17/4 17/21/4 36/49/4
f 3/3/31 15/19/31 39/52/31 40/53/31
f 4/4/32 44/57/32 53/67/32 42/55/32
f 42/55/33 53/67/33 51/65/33 30/43/33
f 33/46/34 30/43/34 51/65/34 52/66/34
f 28/41/35 33/46/35 52/66/35 50/64/35
usemtl front
f 18/23/15 23/34/15 47/60/15 49/63/15
f 19/26/15 18/23/15 49/63/15 48/61/15
usemtl Material
f 4/4/32 8/12/32 46/59/32 44/57/32
f 11/15/36 46/59/36 48/62/36 20/28/36
f 6/8/30 2/2/30 43/56/30 45/58/30
f 6/8/37 45/58/37 47/60/37 23/34/37
usemtl front
f 41/54/38 56/70/38 55/69/38 53/67/38
usemtl Material
f 29/42/39 57/71/39 56/70/39 41/54/39
f 51/65/40 58/72/40 57/71/40 29/42/40
f 53/67/41 55/69/41 58/72/41 51/65/41
f 10/14/42 60/74/42 59/73/42 44/57/42
f 41/54/43 61/75/43 60/74/43 10/14/43
usemtl front
f 53/67/44 62/76/44 61/75/44 41/54/44
usemtl Material
f 44/57/4 59/73/4 62/76/4 53/67/4
f 43/56/45 64/78/45 63/77/45 12/16/45
f 54/68/4 65/79/4 64/78/4 43/56/4
usemtl front
f 38/51/46 66/80/46 65/79/46 54/68/46
usemtl Material
f 12/16/47 63/77/47 66/80/47 38/51/47
usemtl front
f 54/68/48 68/82/48 67/81/48 38/51/48
usemtl Material
f 50/64/49 69/83/49 68/82/49 54/68/49
f 27/40/50 70/84/50 69/83/50 50/64/50
f 38/51/51 67/81/51 70/84/51 27/40/51
f 71/85/32 72/86/32 73/87/32 74/88/32
usemtl front
f 56/70/15 72/86/15 71/85/15 55/69/15
usemtl Material
f 57/71/52 73/87/52 72/86/52 56/70/52
usemtl front
f 58/72/53 74/88/53 73/87/53 57/71/53
usemtl Material
f 55/69/4 71/85/4 74/88/4 58/72/4
f 75/89/54 76/90/54 77/91/54 78/92/54
f 60/74/15 76/90/15 75/89/15 59/73/15
f 61/75/55 77/91/55 76/90/55 60/74/55
usemtl front
f 62/76/56 78/92/56 77/91/56 61/75/56
usemtl Material
f 59/73/57 75/89/57 78/92/57 62/76/57
f 79/93/58 80/94/58 81/95/58 82/96/58
f 64/78/15 80/94/15 79/93/15 63/77/15
f 65/79/59 81/95/59 80/94/59 64/78/59
usemtl front
f 66/80/56 82/96/56 81/95/56 65/79/56
usemtl Material
f 63/77/60 79/93/60 82/96/60 66/80/60
f 83/97/30 84/98/30 85/99/30 86/100/30
usemtl front
f 68/82/15 84/98/15 83/97/15 67/81/15
usemtl Material
f 69/83/4 85/99/4 84/98/4 68/82/4
usemtl front
f 70/84/61 86/100/61 85/99/61 69/83/61
usemtl Material
f 67/81/52 83/97/52 86/100/52 70/84/52
